<svg width="60" height="60" viewBox="0 0 60 60" fill="none" xmlns="http://www.w3.org/2000/svg">
<g filter="url(#filter0_d_7_385)">
<path d="M4 8.89796C4 6.19289 6.19289 4 8.89796 4H47.102C49.8071 4 52 6.19289 52 8.89796V47.102C52 49.8071 49.8071 52 47.102 52H8.89796C6.19289 52 4 49.8071 4 47.102V8.89796Z" fill="white"/>
<path d="M8.89796 2C5.08832 2 2 5.08832 2 8.89796V47.102C2 50.9117 5.08832 54 8.89796 54H47.102C50.9117 54 54 50.9117 54 47.102V8.89796C54 5.08832 50.9117 2 47.102 2H8.89796Z" stroke="black" stroke-width="4"/>
</g>
<path d="M32.4082 28C32.4082 30.4345 30.4346 32.4081 28 32.4081C25.5654 32.4081 23.5918 30.4345 23.5918 28C23.5918 25.5654 25.5654 23.5918 28 23.5918C30.4346 23.5918 32.4082 25.5654 32.4082 28Z" fill="black"/>
<defs>
<filter id="filter0_d_7_385" x="0" y="0" width="60" height="60" filterUnits="userSpaceOnUse" color-interpolation-filters="sRGB" fill="red">
<feFlood flood-opacity="0" result="BackgroundImageFix"/>
<feColorMatrix in="SourceAlpha" type="matrix" values="0 0 0 0 0 0 0 0 0 0 0 0 0 0 0 0 0 0 127 0" result="hardAlpha"/>
<feOffset dx="4" dy="4"/>
<feColorMatrix type="matrix" values="0 0 0 0 0 0 0 0 0 0 0 0 0 0 0 0 0 0 1 0"/>
<feBlend mode="normal" in2="BackgroundImageFix" fill=''/>
<feBlend mode="normal" in="SourceGraphic" in2="effect1_dropShadow_7_385" result="shape"/>
</filter>
</defs>
</svg>
