<svg width="60" height="60" viewBox="0 0 60 60" fill="none" xmlns="http://www.w3.org/2000/svg">
<g filter="url(#filter0_d_22_1584)">
<path d="M4 8.89796C4 6.19289 6.19289 4 8.89796 4H47.102C49.8071 4 52 6.19289 52 8.89796V47.102C52 49.8071 49.8071 52 47.102 52H8.89796C6.19289 52 4 49.8071 4 47.102V8.89796Z" fill="white"/>
<path d="M8.89796 2C5.08832 2 2 5.08832 2 8.89796V47.102C2 50.9117 5.08832 54 8.89796 54H47.102C50.9117 54 54 50.9117 54 47.102V8.89796C54 5.08832 50.9117 2 47.102 2H8.89796Z" stroke="black" stroke-width="4"/>
</g>
<path d="M19.1837 14.7755C19.1837 17.2101 17.2101 19.1836 14.7755 19.1836C12.3409 19.1836 10.3673 17.2101 10.3673 14.7755C10.3673 12.3409 12.3409 10.3673 14.7755 10.3673C17.2101 10.3673 19.1837 12.3409 19.1837 14.7755Z" fill="black"/>
<path d="M32.4082 28C32.4082 30.4345 30.4346 32.4081 28 32.4081C25.5654 32.4081 23.5918 30.4345 23.5918 28C23.5918 25.5654 25.5654 23.5918 28 23.5918C30.4346 23.5918 32.4082 25.5654 32.4082 28Z" fill="black"/>
<path d="M19.1837 41.2244C19.1837 43.659 17.2101 45.6326 14.7755 45.6326C12.3409 45.6326 10.3673 43.659 10.3673 41.2244C10.3673 38.7899 12.3409 36.8163 14.7755 36.8163C17.2101 36.8163 19.1837 38.7899 19.1837 41.2244Z" fill="black"/>
<path d="M45.6327 14.7755C45.6327 17.2101 43.6591 19.1836 41.2245 19.1836C38.7899 19.1836 36.8163 17.2101 36.8163 14.7755C36.8163 12.3409 38.7899 10.3673 41.2245 10.3673C43.6591 10.3673 45.6327 12.3409 45.6327 14.7755Z" fill="black"/>
<path d="M45.6327 41.2244C45.6327 43.659 43.6591 45.6326 41.2245 45.6326C38.7899 45.6326 36.8163 43.659 36.8163 41.2244C36.8163 38.7899 38.7899 36.8163 41.2245 36.8163C43.6591 36.8163 45.6327 38.7899 45.6327 41.2244Z" fill="black"/>
<defs>
<filter id="filter0_d_22_1584" x="0" y="0" width="60" height="60" filterUnits="userSpaceOnUse" color-interpolation-filters="sRGB">
<feFlood flood-opacity="0" result="BackgroundImageFix"/>
<feColorMatrix in="SourceAlpha" type="matrix" values="0 0 0 0 0 0 0 0 0 0 0 0 0 0 0 0 0 0 127 0" result="hardAlpha"/>
<feOffset dx="4" dy="4"/>
<feColorMatrix type="matrix" values="0 0 0 0 0 0 0 0 0 0 0 0 0 0 0 0 0 0 1 0"/>
<feBlend mode="normal" in2="BackgroundImageFix" result="effect1_dropShadow_22_1584"/>
<feBlend mode="normal" in="SourceGraphic" in2="effect1_dropShadow_22_1584" result="shape"/>
</filter>
</defs>
</svg>
