<svg width="454" height="99" viewBox="0 0 454 99" fill="none" xmlns="http://www.w3.org/2000/svg">
<g filter="url(#filter0_d_22_154)">
<path d="M243.052 59.7797L243.057 59.7841L243.062 59.7884C247.138 63.4179 252.134 64.776 257.908 63.706L267.301 61.965C269.202 61.6127 270.743 59.7601 270.743 57.8271V27.3654C270.743 25.4277 269.195 24.1457 267.29 24.5054L252.786 27.2439C252.784 27.2443 252.782 27.2446 252.78 27.2449C247.485 28.2273 242.915 30.3972 240.275 34.5265C238.086 37.9167 236.98 41.5275 236.98 45.2587C236.98 51.2624 239.022 56.1494 243.052 59.7797ZM255.009 41.2707V48.1117C254.874 47.9911 254.743 47.8602 254.615 47.7188C253.535 46.4452 253.002 45.0425 252.918 43.4802V43.48V43.4794V43.4788V43.4783V43.4777V43.4772V43.4766V43.476V43.4755V43.4749V43.4744V43.4738V43.4733V43.4727V43.4722V43.4716V43.4711V43.4705V43.4699V43.4694V43.4688V43.4683V43.4677V43.4672V43.4666V43.4661V43.4655V43.465V43.4644V43.4639V43.4633V43.4628V43.4623V43.4617V43.4612V43.4606V43.4601V43.4595V43.459V43.4584V43.4579V43.4573V43.4568V43.4563V43.4557V43.4552V43.4546V43.4541V43.4536V43.453V43.4525V43.4519V43.4514V43.4509V43.4503V43.4498V43.4492V43.4487V43.4482V43.4476V43.4471V43.4466V43.446V43.4455V43.445V43.4444V43.4439V43.4434V43.4428V43.4423V43.4418V43.4412V43.4407V43.4402V43.4396V43.4391V43.4386V43.438V43.4375V43.437V43.4365V43.4359V43.4354V43.4349V43.4344V43.4338V43.4333V43.4328V43.4323V43.4317V43.4312V43.4307V43.4302V43.4296V43.4291V43.4286V43.4281V43.4275V43.427V43.4265V43.426V43.4255V43.4249V43.4244V43.4239V43.4234V43.4229V43.4224V43.4218V43.4213V43.4208V43.4203V43.4198V43.4193V43.4187V43.4182V43.4177V43.4172V43.4167V43.4162V43.4157V43.4152V43.4146V43.4141V43.4136V43.4131V43.4126V43.4121V43.4116V43.4111V43.4106V43.4101V43.4096V43.409V43.4085V43.408V43.4075V43.407V43.4065V43.406V43.4055V43.405V43.4045V43.404V43.4035V43.403V43.4025V43.402V43.4015V43.401V43.4005V43.4V43.3995V43.399V43.3985V43.398V43.3975V43.397V43.3965V43.396V43.3955V43.395V43.3945V43.394V43.3935V43.393V43.3925V43.392V43.3916V43.3911V43.3906V43.3901V43.3896V43.3891V43.3886V43.3881V43.3876V43.3871V43.3866V43.3862V43.3857V43.3852V43.3847V43.3842V43.3837V43.3832V43.3827V43.3823V43.3818V43.3813V43.3808V43.3803V43.3798V43.3794V43.3789V43.3784V43.3779V43.3774V43.3769V43.3765V43.376V43.3755V43.375V43.3746V43.3741V43.3736V43.3731V43.3726V43.3722V43.3717V43.3712V43.3707V43.3703V43.3698V43.3693V43.3688V43.3684V43.3679V43.3674V43.3669V43.3665V43.366V43.3655V43.3651V43.3646V43.3641V43.3636V43.3632V43.3627V43.3622V43.3618V43.3613V43.3608V43.3604V43.3599V43.3594V43.359V43.3585V43.358V43.3576V43.3571V43.3566V43.3562V43.3557V43.3552V43.3548V43.3543V43.3539V43.3534V43.3529V43.3525V43.352V43.3516V43.3511V43.3506V43.3502V43.3497V43.3493V43.3488V43.3484V43.3479V43.3474V43.347V43.3465V43.3461V43.3456V43.3452V43.3447V43.3443V43.3438V43.3434V43.3429V43.3425V43.342V43.3415V43.3411V43.3406V43.3402V43.3397V43.3393V43.3389V43.3384V43.338V43.3375V43.3371V43.3366V43.3362V43.3357V43.3353V43.3348V43.3344V43.3339V43.3335V43.3331V43.3326V43.3322V43.3317V43.3313V43.3308V43.3304V43.33V43.3295V43.3291V43.3286V43.3282V43.3278V43.3273V43.3269V43.3265V43.326V43.3256V43.3251V43.3247V43.3243V43.3238V43.3234V43.323V43.3225V43.3221V43.3217V43.3212V43.3208V43.3204V43.3199V43.3195V43.3191V43.3187V43.3182V43.3178V43.3174V43.3169V43.3165V43.3161V43.3157V43.3152V43.3148V43.3144V43.3139V43.3135V43.3131V43.3127V43.3122V43.3118V43.3114V43.311V43.3106V43.3101V43.3097V43.3093V43.3089V43.3084V43.308V43.3076V43.3072V43.3068V43.3063V43.3059V43.3055V43.3051V43.3047V43.3043V43.3038V43.3034V43.303V43.3026V43.3022V43.3018V43.3014V43.3009V43.3005V43.3001V43.2997V43.2993V43.2989V43.2985V43.2981V43.2976V43.2972V43.2968V43.2964V43.296V43.2956V43.2952V43.2948V43.2944V43.2938V43.2932V43.2925V43.2919V43.2913V43.2907V43.2901V43.2895V43.2889V43.2883V43.2877V43.2871V43.2865V43.2859V43.2853V43.2847V43.2841V43.2835V43.2829V43.2822V43.2816V43.281V43.2804V43.2798V43.2792V43.2786V43.278V43.2774V43.2768V43.2762V43.2756V43.275V43.2745V43.2739V43.2733V43.2727V43.2721V43.2715V43.2709V43.2703V43.2697V43.2691V43.2685V43.2679V43.2673V43.2667V43.2661V43.2655V43.2649V43.2644V43.2638V43.2632V43.2626V43.262V43.2614V43.2608V43.2602V43.2596V43.2591V43.2585V43.2579V43.2573V43.2567V43.2561V43.2555V43.255V43.2544V43.2538V43.2532V43.2526V43.252V43.2515V43.2509V43.2503V43.2497V43.2491V43.2486V43.248V43.2474V43.2468V43.2462V43.2457V43.2451V43.2445V43.2439V43.2433V43.2428V43.2422V43.2416V43.241V43.2405V43.2399V43.2393V43.2388V43.2382V43.2376V43.237V43.2365V43.2359V43.2353V43.2348V43.2342V43.2336V43.233V43.2325V43.2319V43.2313V43.2308V43.2302V43.2296V43.2291V43.2285V43.2279V43.2274V43.2268V43.2262V43.2257V43.2251V43.2245V43.224V43.2234V43.2229V43.2223V43.2217V43.2212V43.2206V43.2201V43.2195V43.2189V43.2184V43.2178V43.2173V43.2167V43.2161V43.2156V43.215V43.2145V43.2139V43.2134V43.2128V43.2123V43.2117V43.2111V43.2106V43.21V43.2095V43.2089V43.2084V43.2078V43.2073V43.2067V43.2062V43.2056V43.2051V43.2045V43.204V43.2034V43.2029V43.2023V43.2018V43.2012V43.2007V43.2002V43.1996V43.1991V43.1985V43.198V43.1974V43.1969V43.1963V43.1958V43.1953V43.1947V43.1942V43.1936V43.1931V43.1926V43.192V43.1915V43.1909V43.1904V43.1899V43.1893V43.1888V43.1882V43.1877V43.1872V43.1866V43.1861V43.1856V43.185V43.1845V43.184V43.1834V43.1829V43.1824V43.1818V43.1813V43.1808V43.1802V43.1797V43.1792V43.1786V43.1781V43.1776V43.1771V43.1765V43.176V43.1755V43.1749V43.1744V43.1739V43.1734V43.1728V43.1723V43.1718V43.1713V43.1707V43.1702V43.1697V43.1692V43.1687V43.1681V43.1676V43.1671V43.1666V43.166V43.1655V43.165V43.1645V43.164V43.1635V43.1629V43.1624V43.1619V43.1614V43.1609V43.1603V43.1598V43.1593V43.1588V43.1583V43.1578V43.1573V43.1567V43.1562V43.1557V43.1552V43.1547V43.1542V43.1537V43.1532V43.1527V43.1521V43.1516V43.1511V43.1506V43.1501V43.1496V43.1491V43.1486V43.1481V43.1476V43.1471V43.1466V43.1461V43.1456V43.1451V43.1445V43.144V43.1435V43.143V43.1425V43.142V43.1415V43.141V43.1405V43.14V43.1395V43.139V43.1385V43.138V43.1375V43.137V43.1365V43.136V43.1355V43.1351V43.1346V43.1341V43.1336V43.1331V43.1326V43.1321V43.1316V43.1311V43.1306V43.1301V43.1296V43.1291V43.1286V43.1281V43.1277V43.1272V43.1267V43.1262V43.1257V43.1252V43.1247V43.1242V43.1237V43.1233V43.1228V43.1223V43.1218V43.1213V43.1208V43.1204V43.1199V43.1194V43.1189V43.1184V43.1179V43.1175V43.117V43.1165V43.116V43.1155V43.1151V43.1146V43.1141V43.1136V43.1131V43.1127V43.1122V43.1117V43.1112V43.1107V43.1103V43.1098V43.1093V43.1088V43.1084V43.1079V43.1074V43.107V43.1065V43.106V43.1055V43.1051V43.1046V43.1041V43.1037V43.1032V43.1027V43.1022V43.1018V43.1013V43.1008V43.1004V43.0999V43.0994V43.099V43.0985V43.098V43.0976V43.0971V43.0966V43.0962V43.0957V43.0953V43.0948V43.0943V43.0939V43.0934V43.0929V43.0925V43.092V43.0916V43.0911V43.0906V43.0902V43.0897V43.0893V43.0888V43.0884V43.0879V43.0874V43.087V43.0865V43.0861V43.0856V43.0852V43.0847V43.0843V43.0838V43.0833V43.0829V43.0824V43.082V43.0815V43.0811V43.0806V43.0802V43.0797V43.0793V43.0788V43.0784V43.0779V43.0775V43.0771V43.0766V43.0762V43.0757V43.0753V43.0748V43.0744V43.0739V43.0735V43.073V43.0726V43.0722V43.0717V43.0713V43.0708V43.0704V43.0699V43.0695V43.0691V43.0686V43.0682V43.0678V43.0673V43.0669V43.0664V43.066V43.0656V43.0651V43.0647V43.0643V43.0638V43.0634V43.0629V43.0625V43.0621V43.0616V43.0612V43.0608V43.0603V43.0599V43.0595V43.0591V43.0586V43.0582V43.0578V43.0573V43.0569V43.0565V43.056V43.0556V43.0552V43.0548V43.0543V43.0539V43.0535V43.0531V43.0526V43.0522V43.0518V43.0514V43.0509V43.0505V43.0501V43.0497V43.0493V43.0488V43.0484V43.048V43.0476V43.0471V43.0467V43.0463V43.0459V43.0455V43.0451V43.0446V43.0442V43.0438V43.0434V43.043V43.0426V43.0421V43.0417V43.0413V43.0409V43.0405V43.0401V43.0397V43.0392V43.0388V43.0384V43.038V43.0376V43.0372V43.0368V43.0364V43.036V43.0356V43.0351V43.0347V43.0343V43.0339C252.918 42.5132 252.973 42.196 253.017 42.0362C253.018 42.0319 253.019 42.0277 253.02 42.0238C253.189 41.8417 253.322 41.753 253.426 41.7023C253.559 41.6545 253.686 41.6201 253.81 41.5971L253.944 41.5723L254.077 41.5353C254.397 41.4463 254.693 41.3611 254.96 41.2798L255.009 41.2707Z" fill="#699BF7" stroke="black" stroke-width="6"/>
<path d="M224.995 40.1036L223.416 35.1165C222.975 33.7242 221.639 32.9645 220.124 33.2453L209.53 35.2087C207.107 35.6579 205.442 38.4463 206.326 40.578L216.722 65.6722L212.523 78.2625C211.712 80.6945 213.374 82.7948 215.759 82.3527L225.263 80.5913C226.72 80.3213 228.019 79.1472 228.506 77.6602L242.909 33.6923C243.703 31.267 242.042 29.183 239.665 29.6235L229.867 31.4395C228.352 31.7202 227.016 32.9754 226.575 34.5311L229.397 34.8811L226.575 34.5311L224.995 40.1036Z" fill="white" stroke="black" stroke-width="6"/>
<path d="M288.669 20.5413L288.657 20.5435L288.645 20.5457L286.166 21.0052V13.4097C286.166 11.4767 284.625 10.1953 282.724 10.5475L273.873 12.1879C271.973 12.5402 270.432 14.3928 270.432 16.3258V57.8847C270.432 59.8177 271.973 61.0992 273.873 60.7469L282.724 59.1065C284.625 58.7542 286.166 56.9017 286.166 54.9687V35.5723C286.403 35.543 286.604 35.5256 286.772 35.5167C286.84 35.9541 286.896 36.5587 286.925 37.3581V37.3582V37.3584V37.3586V37.3588V37.359V37.3592V37.3594V37.3596V37.3598V37.36V37.3602V37.3604V37.3606V37.3608V37.361V37.3612V37.3614V37.3616V37.3618V37.362V37.3622V37.3624V37.3626V37.3628V37.363V37.3633V37.3635V37.3637V37.3639V37.3641V37.3643V37.3645V37.3647V37.3649V37.3651V37.3653V37.3655V37.3657V37.3659V37.3661V37.3663V37.3665V37.3667V37.3669V37.3671V37.3673V37.3675V37.3677V37.3679V37.3681V37.3683V37.3685V37.3687V37.369V37.3692V37.3694V37.3696V37.3698V37.37V37.3702V37.3704V37.3706V37.3708V37.371V37.3712V37.3714V37.3716V37.3718V37.372V37.3722V37.3724V37.3726V37.3728V37.373V37.3732V37.3734V37.3736V37.3738V37.374V37.3742V37.3744V37.3746V37.3749V37.3751V37.3753V37.3755V37.3757V37.3759V37.3761V37.3763V37.3765V37.3767V37.3769V37.3771V37.3773V37.3775V37.3777V37.3779V37.3781V37.3783V37.3785V37.3787V37.3789V37.3791V37.3793V37.3795V37.3797V37.3799V37.3801V37.3803V37.3805V37.3808V37.381V37.3812V37.3814V37.3816V37.3818V37.382V37.3822V37.3824V37.3826V37.3828V37.383V37.3832V37.3834V37.3836V37.3838V37.384V37.3842V37.3844V37.3846V37.3848V37.385V37.3852V37.3854V37.3856V37.3858V37.386V37.3862V37.3865V37.3867V37.3869V37.3871V37.3873V37.3875V37.3877V37.3879V37.3881V37.3883V37.3885V37.3887V37.3889V37.3891V37.3893V37.3895V37.3897V37.3899V37.3901V37.3903V37.3905V37.3907V37.3909V37.3911V37.3913V37.3915V37.3917V37.3919V37.3921V37.3924V37.3926V37.3928V37.393V37.3932V37.3934V37.3936V37.3938V37.394V37.3942V37.3944V37.3946V37.3948V37.395V37.3952V37.3954V37.3956V37.3958V37.396V37.3962V37.3964V37.3966V37.3968V37.397V37.3972V37.3974V37.3976V37.3978V37.398V37.3983V37.3985V37.3987V37.3989V37.3991V37.3993V37.3995V37.3997V37.3999V37.4001V37.4003V37.4005V37.4007V37.4009V37.4011V37.4013V37.4015V37.4017V37.4019V37.4021V37.4023V37.4025V37.4027V37.4029V37.4031V37.4033V37.4035V37.4037V37.404V37.4042V37.4044V37.4046V37.4048V37.405V37.4052V37.4054V37.4056V37.4058V37.406V37.4062V37.4064V37.4066V37.4068V37.407V37.4072V37.4074V37.4076V37.4078V37.408V37.4082V37.4084V54.828C286.925 56.761 288.466 58.0424 290.366 57.6902L299.217 56.0498C301.118 55.6975 302.658 53.8449 302.658 51.9119V33.0859C302.658 28.6398 301.822 24.8928 299.571 22.5733C297.156 20.0418 293.149 19.7481 288.669 20.5413Z" fill="#FF8577" stroke="black" stroke-width="6"/>
<path d="M321.001 39.9274C321.001 39.2682 320.822 38.6848 320.51 38.2161C320.822 37.6319 321.001 36.982 321.001 36.3228V6.95333C321.001 5.02033 319.46 3.7389 317.56 4.09116L307.736 5.91193C305.835 6.26419 304.294 8.11676 304.294 10.0498V39.4193C304.294 40.0785 304.473 40.6619 304.785 41.1306C304.473 41.7148 304.294 42.3646 304.294 43.0238V51.6087C304.294 53.5417 305.835 54.8232 307.736 54.4709L317.56 52.6501C319.46 52.2979 321.001 50.4453 321.001 48.5123V39.9274Z" fill="#C7B9FF" stroke="black" stroke-width="6"/>
<path d="M193.521 52.7711L193.387 52.7959C193.263 52.8189 193.136 52.8532 193.003 52.9011C192.899 52.9518 192.766 53.0404 192.597 53.2225C192.596 53.2265 192.595 53.2306 192.594 53.235C192.55 53.3947 192.495 53.7119 192.495 54.2327L193.521 52.7711ZM193.521 52.7711L193.654 52.734M193.521 52.7711L193.654 52.734M193.654 52.734C193.974 52.6451 194.27 52.5598 194.537 52.4785M193.654 52.734L194.537 52.4785M194.537 52.4785L194.586 52.4695L194.537 52.4785ZM192.495 54.4925V54.4931V54.4925ZM192.495 54.4925V54.4919M192.495 54.4925V54.4919M192.495 54.4919V54.4913M192.495 54.4919V54.4913M192.495 54.4913V54.4907M192.495 54.4913V54.4907M192.495 54.4907V54.4901M192.495 54.4907V54.4901M192.495 54.4901V54.4895M192.495 54.4901V54.4895M192.495 54.4895V54.4888M192.495 54.4895V54.4888M192.495 54.4888V54.4882M192.495 54.4888V54.4882M192.495 54.4882V54.4876M192.495 54.4882V54.4876M192.495 54.4876V54.487M192.495 54.4876V54.487M192.495 54.487V54.4864M192.495 54.487V54.4864M192.495 54.4864V54.4858M192.495 54.4864V54.4858M192.495 54.4858V54.4852M192.495 54.4858V54.4852M192.495 54.4852V54.4846M192.495 54.4852V54.4846M192.495 54.4846V54.484M192.495 54.4846V54.484M192.495 54.484V54.4834M192.495 54.484V54.4834M192.495 54.4834V54.4828M192.495 54.4834V54.4828M192.495 54.4828V54.4822M192.495 54.4828V54.4822M192.495 54.4822V54.4816M192.495 54.4822V54.4816M192.495 54.4816V54.481M192.495 54.4816V54.481M192.495 54.481V54.4804M192.495 54.481V54.4804M192.495 54.4804V54.4798M192.495 54.4804V54.4798M192.495 54.4798V54.4792M192.495 54.4798V54.4792M192.495 54.4792V54.4786M192.495 54.4792V54.4786M192.495 54.4786V54.478M192.495 54.4786V54.478M192.495 54.478V54.4774M192.495 54.478V54.4774M192.495 54.4774V54.4768M192.495 54.4774V54.4768M192.495 54.4768V54.4762M192.495 54.4768V54.4762M192.495 54.4762V54.4756M192.495 54.4762V54.4756M192.495 54.4756V54.475M192.495 54.4756V54.475M192.495 54.475V54.4744M192.495 54.475V54.4744M192.495 54.4744V54.4738M192.495 54.4744V54.4738M192.495 54.4738V54.4732M192.495 54.4738V54.4732M192.495 54.4732V54.4726M192.495 54.4732V54.4726M192.495 54.4726V54.472M192.495 54.4726V54.472M192.495 54.472V54.4714M192.495 54.472V54.4714M192.495 54.4714V54.4708M192.495 54.4714V54.4708M192.495 54.4708V54.4702M192.495 54.4708V54.4702M192.495 54.4702V54.4696M192.495 54.4702V54.4696M192.495 54.4696V54.469M192.495 54.4696V54.469M192.495 54.469V54.4684M192.495 54.469V54.4684M192.495 54.4684V54.4678M192.495 54.4684V54.4678M192.495 54.4678V54.4672M192.495 54.4678V54.4672M192.495 54.4672V54.4666M192.495 54.4672V54.4666M192.495 54.4666V54.466M192.495 54.4666V54.466M192.495 54.466V54.4654M192.495 54.466V54.4654M192.495 54.4654V54.4649M192.495 54.4654V54.4649M192.495 54.4649V54.4643M192.495 54.4649V54.4643M192.495 54.4643V54.4637M192.495 54.4643V54.4637M192.495 54.4637V54.4631M192.495 54.4637V54.4631M192.495 54.4631V54.4625M192.495 54.4631V54.4625M192.495 54.4625V54.4619M192.495 54.4625V54.4619M192.495 54.4619V54.4613M192.495 54.4619V54.4613M192.495 54.4613V54.4607M192.495 54.4613V54.4607M192.495 54.4607V54.4601M192.495 54.4607V54.4601M192.495 54.4601V54.4595M192.495 54.4601V54.4595M192.495 54.4595V54.459M192.495 54.4595V54.459M192.495 54.459V54.4584M192.495 54.459V54.4584M192.495 54.4584V54.4578M192.495 54.4584V54.4578M192.495 54.4578V54.4572M192.495 54.4578V54.4572M192.495 54.4572V54.4566M192.495 54.4572V54.4566M192.495 54.4566V54.456M192.495 54.4566V54.456M192.495 54.456V54.4554M192.495 54.456V54.4554M192.495 54.4554V54.4549M192.495 54.4554V54.4549M192.495 54.4549V54.4543M192.495 54.4549V54.4543M192.495 54.4543V54.4537M192.495 54.4543V54.4537M192.495 54.4537V54.4531M192.495 54.4537V54.4531M192.495 54.4531V54.4525M192.495 54.4531V54.4525M192.495 54.4525V54.4519M192.495 54.4525V54.4519M192.495 54.4519V54.4514M192.495 54.4519V54.4514M192.495 54.4514V54.4508M192.495 54.4514V54.4508M192.495 54.4508V54.4502M192.495 54.4508V54.4502M192.495 54.4502V54.4496M192.495 54.4502V54.4496M192.495 54.4496V54.449M192.495 54.4496V54.449M192.495 54.449V54.4484M192.495 54.449V54.4484M192.495 54.4484V54.4479M192.495 54.4484V54.4479M192.495 54.4479V54.4473M192.495 54.4479V54.4473M192.495 54.4473V54.4467M192.495 54.4473V54.4467M192.495 54.4467V54.4461M192.495 54.4467V54.4461M192.495 54.4461V54.4455M192.495 54.4461V54.4455M192.495 54.4455V54.445M192.495 54.4455V54.445M192.495 54.445V54.4444M192.495 54.445V54.4444M192.495 54.4444V54.4438M192.495 54.4444V54.4438M192.495 54.4438V54.4432M192.495 54.4438V54.4432M192.495 54.4432V54.4427M192.495 54.4432V54.4427M192.495 54.4427V54.4421M192.495 54.4427V54.4421M192.495 54.4421V54.4415M192.495 54.4421V54.4415M192.495 54.4415V54.4409M192.495 54.4415V54.4409M192.495 54.4409V54.4404M192.495 54.4409V54.4404M192.495 54.4404V54.4398M192.495 54.4404V54.4398M192.495 54.4398V54.4392M192.495 54.4398V54.4392M192.495 54.4392V54.4386M192.495 54.4392V54.4386M192.495 54.4386V54.4381M192.495 54.4386V54.4381M192.495 54.4381V54.4375M192.495 54.4381V54.4375M192.495 54.4375V54.4369M192.495 54.4375V54.4369M192.495 54.4369V54.4363M192.495 54.4369V54.4363M192.495 54.4363V54.4358M192.495 54.4363V54.4358M192.495 54.4358V54.4352M192.495 54.4358V54.4352M192.495 54.4352V54.4346M192.495 54.4352V54.4346M192.495 54.4346V54.4341M192.495 54.4346V54.4341M192.495 54.4341V54.4335M192.495 54.4341V54.4335M192.495 54.4335V54.4329M192.495 54.4335V54.4329M192.495 54.4329V54.4323M192.495 54.4329V54.4323M192.495 54.4323V54.4318M192.495 54.4323V54.4318M192.495 54.4318V54.4312M192.495 54.4318V54.4312M192.495 54.4312V54.4306M192.495 54.4312V54.4306M192.495 54.4306V54.4301M192.495 54.4306V54.4301M192.495 54.4301V54.4295M192.495 54.4301V54.4295M192.495 54.4295V54.4289M192.495 54.4295V54.4289M192.495 54.4289V54.4284M192.495 54.4289V54.4284M192.495 54.4284V54.4278M192.495 54.4284V54.4278M192.495 54.4278V54.4272M192.495 54.4278V54.4272M192.495 54.4272V54.4267M192.495 54.4272V54.4267M192.495 54.4267V54.4261M192.495 54.4267V54.4261M192.495 54.4261V54.4255M192.495 54.4261V54.4255M192.495 54.4255V54.425M192.495 54.4255V54.425M192.495 54.425V54.4244M192.495 54.425V54.4244M192.495 54.4244V54.4238M192.495 54.4244V54.4238M192.495 54.4238V54.4233M192.495 54.4238V54.4233M192.495 54.4233V54.4227M192.495 54.4233V54.4227M192.495 54.4227V54.4222M192.495 54.4227V54.4222M192.495 54.4222V54.4216M192.495 54.4222V54.4216M192.495 54.4216V54.421M192.495 54.4216V54.421M192.495 54.421V54.4205M192.495 54.421V54.4205M192.495 54.4205V54.4199M192.495 54.4205V54.4199M192.495 54.4199V54.4193M192.495 54.4199V54.4193M192.495 54.4193V54.4188M192.495 54.4193V54.4188M192.495 54.4188V54.4182M192.495 54.4188V54.4182M192.495 54.4182V54.4177M192.495 54.4182V54.4177M192.495 54.4177V54.4171M192.495 54.4177V54.4171M192.495 54.4171V54.4166M192.495 54.4171V54.4166M192.495 54.4166V54.416M192.495 54.4166V54.416M192.495 54.416V54.4154M192.495 54.416V54.4154M192.495 54.4154V54.4149M192.495 54.4154V54.4149M192.495 54.4149V54.4143M192.495 54.4149V54.4143M192.495 54.4143V54.4138M192.495 54.4143V54.4138M192.495 54.4138V54.4132M192.495 54.4138V54.4132M192.495 54.4132V54.4127M192.495 54.4132V54.4127M192.495 54.4127V54.4121M192.495 54.4127V54.4121M192.495 54.4121V54.4115M192.495 54.4121V54.4115M192.495 54.4115V54.411M192.495 54.4115V54.411M192.495 54.411V54.4104M192.495 54.411V54.4104M192.495 54.4104V54.4099M192.495 54.4104V54.4099M192.495 54.4099V54.4093M192.495 54.4099V54.4093M192.495 54.4093V54.4088M192.495 54.4093V54.4088M192.495 54.4088V54.4082M192.495 54.4088V54.4082M192.495 54.4082V54.4077M192.495 54.4082V54.4077M192.495 54.4077V54.4071M192.495 54.4077V54.4071M192.495 54.4071V54.4066M192.495 54.4071V54.4066M192.495 54.4066V54.406M192.495 54.4066V54.406M192.495 54.406V54.4055M192.495 54.406V54.4055M192.495 54.4055V54.4049M192.495 54.4055V54.4049M192.495 54.4049V54.4044M192.495 54.4049V54.4044M192.495 54.4044V54.4038M192.495 54.4044V54.4038M192.495 54.4038V54.4033M192.495 54.4038V54.4033M192.495 54.4033V54.4027M192.495 54.4033V54.4027M192.495 54.4027V54.4022M192.495 54.4027V54.4022M192.495 54.4022V54.4016M192.495 54.4022V54.4016M192.495 54.4016V54.4011M192.495 54.4016V54.4011M192.495 54.4011V54.4005M192.495 54.4011V54.4005M192.495 54.4005V54.4M192.495 54.4005V54.4M192.495 54.4V54.3994M192.495 54.4V54.3994M192.495 54.3994V54.3989M192.495 54.3994V54.3989M192.495 54.3989V54.3983M192.495 54.3989V54.3983M192.495 54.3983V54.3978M192.495 54.3983V54.3978M192.495 54.3978V54.3973M192.495 54.3978V54.3973M192.495 54.3973V54.3967M192.495 54.3973V54.3967M192.495 54.3967V54.3962M192.495 54.3967V54.3962M192.495 54.3962V54.3956M192.495 54.3962V54.3956M192.495 54.3956V54.3951M192.495 54.3956V54.3951M192.495 54.3951V54.3945M192.495 54.3951V54.3945M192.495 54.3945V54.394M192.495 54.3945V54.394M192.495 54.394V54.3934M192.495 54.394V54.3934M192.495 54.3934V54.3929M192.495 54.3934V54.3929M192.495 54.3929V54.3924M192.495 54.3929V54.3924M192.495 54.3924V54.3918M192.495 54.3924V54.3918M192.495 54.3918V54.3913M192.495 54.3918V54.3913M192.495 54.3913V54.3907M192.495 54.3913V54.3907M192.495 54.3907V54.3902M192.495 54.3907V54.3902M192.495 54.3902V54.3897M192.495 54.3902V54.3897M192.495 54.3897V54.3891M192.495 54.3897V54.3891M192.495 54.3891V54.3886M192.495 54.3891V54.3886M192.495 54.3886V54.3881M192.495 54.3886V54.3881M192.495 54.3881V54.3875M192.495 54.3881V54.3875M192.495 54.3875V54.387M192.495 54.3875V54.387M192.495 54.387V54.3864M192.495 54.387V54.3864M192.495 54.3864V54.3859M192.495 54.3864V54.3859M192.495 54.3859V54.3854M192.495 54.3859V54.3854M192.495 54.3854V54.3848M192.495 54.3854V54.3848M192.495 54.3848V54.3843M192.495 54.3848V54.3843M192.495 54.3843V54.3838M192.495 54.3843V54.3838M192.495 54.3838V54.3832M192.495 54.3838V54.3832M192.495 54.3832V54.3827M192.495 54.3832V54.3827M192.495 54.3827V54.3822M192.495 54.3827V54.3822M192.495 54.3822V54.3816M192.495 54.3822V54.3816M192.495 54.3816V54.3811M192.495 54.3816V54.3811M192.495 54.3811V54.3806M192.495 54.3811V54.3806M192.495 54.3806V54.38M192.495 54.3806V54.38M192.495 54.38V54.3795M192.495 54.38V54.3795M192.495 54.3795V54.379M192.495 54.3795V54.379M192.495 54.379V54.3784M192.495 54.379V54.3784M192.495 54.3784V54.3779M192.495 54.3784V54.3779M192.495 54.3779V54.3774M192.495 54.3779V54.3774M192.495 54.3774V54.3768M192.495 54.3774V54.3768M192.495 54.3768V54.3763M192.495 54.3768V54.3763M192.495 54.3763V54.3758M192.495 54.3763V54.3758M192.495 54.3758V54.3753M192.495 54.3758V54.3753M192.495 54.3753V54.3747M192.495 54.3753V54.3747M192.495 54.3747V54.3742M192.495 54.3747V54.3742M192.495 54.3742V54.3737M192.495 54.3742V54.3737M192.495 54.3737V54.3732M192.495 54.3737V54.3732M192.495 54.3732V54.3726M192.495 54.3732V54.3726M192.495 54.3726V54.3721M192.495 54.3726V54.3721M192.495 54.3721V54.3716M192.495 54.3721V54.3716M192.495 54.3716V54.371M192.495 54.3716V54.371M192.495 54.371V54.3705M192.495 54.371V54.3705M192.495 54.3705V54.37M192.495 54.3705V54.37M192.495 54.37V54.3695M192.495 54.37V54.3695M192.495 54.3695V54.369M192.495 54.3695V54.369M192.495 54.369V54.3684M192.495 54.369V54.3684M192.495 54.3684V54.3679M192.495 54.3684V54.3679M192.495 54.3679V54.3674M192.495 54.3679V54.3674M192.495 54.3674V54.3669M192.495 54.3674V54.3669M192.495 54.3669V54.3663M192.495 54.3669V54.3663M192.495 54.3663V54.3658M192.495 54.3663V54.3658M192.495 54.3658V54.3653M192.495 54.3658V54.3653M192.495 54.3653V54.3648M192.495 54.3653V54.3648M192.495 54.3648V54.3643M192.495 54.3648V54.3643M192.495 54.3643V54.3637M192.495 54.3643V54.3637M192.495 54.3637V54.3632M192.495 54.3637V54.3632M192.495 54.3632V54.3627M192.495 54.3632V54.3627M192.495 54.3627V54.3622M192.495 54.3627V54.3622M192.495 54.3622V54.3617M192.495 54.3622V54.3617M192.495 54.3617V54.3611M192.495 54.3617V54.3611M192.495 54.3611V54.3606M192.495 54.3611V54.3606M192.495 54.3606V54.3601M192.495 54.3606V54.3601M192.495 54.3601V54.3596M192.495 54.3601V54.3596M192.495 54.3596V54.3591M192.495 54.3596V54.3591M192.495 54.3591V54.3586M192.495 54.3591V54.3586M192.495 54.3586V54.358M192.495 54.3586V54.358M192.495 54.358V54.3575M192.495 54.358V54.3575M192.495 54.3575V54.357M192.495 54.3575V54.357M192.495 54.357V54.3565M192.495 54.357V54.3565M192.495 54.3565V54.356M192.495 54.3565V54.356M192.495 54.356V54.3555M192.495 54.356V54.3555M192.495 54.3555V54.355M192.495 54.3555V54.355M192.495 54.355V54.3545M192.495 54.355V54.3545M192.495 54.3545V54.3539M192.495 54.3545V54.3539M192.495 54.3539V54.3534M192.495 54.3539V54.3534M192.495 54.3534V54.3529M192.495 54.3534V54.3529M192.495 54.3529V54.3524M192.495 54.3529V54.3524M192.495 54.3524V54.3519M192.495 54.3524V54.3519M192.495 54.3519V54.3514M192.495 54.3519V54.3514M192.495 54.3514V54.3509M192.495 54.3514V54.3509M192.495 54.3509V54.3504M192.495 54.3509V54.3504M192.495 54.3504V54.3499M192.495 54.3504V54.3499M192.495 54.3499V54.3494M192.495 54.3499V54.3494M192.495 54.3494V54.3488M192.495 54.3494V54.3488M192.495 54.3488V54.3483M192.495 54.3488V54.3483M192.495 54.3483V54.3478M192.495 54.3483V54.3478M192.495 54.3478V54.3473M192.495 54.3478V54.3473M192.495 54.3473V54.3468M192.495 54.3473V54.3468M192.495 54.3468V54.3463M192.495 54.3468V54.3463M192.495 54.3463V54.3458M192.495 54.3463V54.3458M192.495 54.3458V54.3453M192.495 54.3458V54.3453M192.495 54.3453V54.3448M192.495 54.3453V54.3448M192.495 54.3448V54.3443M192.495 54.3448V54.3443M192.495 54.3443V54.3438M192.495 54.3443V54.3438M192.495 54.3438V54.3433M192.495 54.3438V54.3433M192.495 54.3433V54.3428M192.495 54.3433V54.3428M192.495 54.3428V54.3423M192.495 54.3428V54.3423M192.495 54.3423V54.3418M192.495 54.3423V54.3418M192.495 54.3418V54.3413M192.495 54.3418V54.3413M192.495 54.3413V54.3408M192.495 54.3413V54.3408M192.495 54.3408V54.3403M192.495 54.3408V54.3403M192.495 54.3403V54.3398M192.495 54.3403V54.3398M192.495 54.3398V54.3393M192.495 54.3398V54.3393M192.495 54.3393V54.3388M192.495 54.3393V54.3388M192.495 54.3388V54.3383M192.495 54.3388V54.3383M192.495 54.3383V54.3378M192.495 54.3383V54.3378M192.495 54.3378V54.3373M192.495 54.3378V54.3373M192.495 54.3373V54.3368M192.495 54.3373V54.3368M192.495 54.3368V54.3363M192.495 54.3368V54.3363M192.495 54.3363V54.3358M192.495 54.3363V54.3358M192.495 54.3358V54.3353M192.495 54.3358V54.3353M192.495 54.3353V54.3348M192.495 54.3353V54.3348M192.495 54.3348V54.3343M192.495 54.3348V54.3343M192.495 54.3343V54.3338M192.495 54.3343V54.3338M192.495 54.3338V54.3333M192.495 54.3338V54.3333M192.495 54.3333V54.3328M192.495 54.3333V54.3328M192.495 54.3328V54.3323M192.495 54.3328V54.3323M192.495 54.3323V54.3318M192.495 54.3323V54.3318M192.495 54.3318V54.3313M192.495 54.3318V54.3313M192.495 54.3313V54.3308M192.495 54.3313V54.3308M192.495 54.3308V54.3303M192.495 54.3308V54.3303M192.495 54.3303V54.3298M192.495 54.3303V54.3298M192.495 54.3298V54.3293M192.495 54.3298V54.3293M192.495 54.3293V54.3288M192.495 54.3293V54.3288M192.495 54.3288V54.3284M192.495 54.3288V54.3284M192.495 54.3284V54.3279M192.495 54.3284V54.3279M192.495 54.3279V54.3274M192.495 54.3279V54.3274M192.495 54.3274V54.3269M192.495 54.3274V54.3269M192.495 54.3269V54.3264M192.495 54.3269V54.3264M192.495 54.3264V54.3259M192.495 54.3264V54.3259M192.495 54.3259V54.3254M192.495 54.3259V54.3254M192.495 54.3254V54.3249M192.495 54.3254V54.3249M192.495 54.3249V54.3244M192.495 54.3249V54.3244M192.495 54.3244V54.3239M192.495 54.3244V54.3239M192.495 54.3239V54.3235M192.495 54.3239V54.3235M192.495 54.3235V54.323M192.495 54.3235V54.323M192.495 54.323V54.3225M192.495 54.323V54.3225M192.495 54.3225V54.322M192.495 54.3225V54.322M192.495 54.322V54.3215M192.495 54.322V54.3215M192.495 54.3215V54.321M192.495 54.3215V54.321M192.495 54.321V54.3205M192.495 54.321V54.3205M192.495 54.3205V54.3201M192.495 54.3205V54.3201M192.495 54.3201V54.3196M192.495 54.3201V54.3196M192.495 54.3196V54.3191M192.495 54.3196V54.3191M192.495 54.3191V54.3186M192.495 54.3191V54.3186M192.495 54.3186V54.3181M192.495 54.3186V54.3181M192.495 54.3181V54.3176M192.495 54.3181V54.3176M192.495 54.3176V54.3171M192.495 54.3176V54.3171M192.495 54.3171V54.3167M192.495 54.3171V54.3167M192.495 54.3167V54.3162M192.495 54.3167V54.3162M192.495 54.3162V54.3157M192.495 54.3162V54.3157M192.495 54.3157V54.3152M192.495 54.3157V54.3152M192.495 54.3152V54.3147M192.495 54.3152V54.3147M192.495 54.3147V54.3143M192.495 54.3147V54.3143M192.495 54.3143V54.3138M192.495 54.3143V54.3138M192.495 54.3138V54.3133M192.495 54.3138V54.3133M192.495 54.3133V54.3128M192.495 54.3133V54.3128M192.495 54.3128V54.3123M192.495 54.3128V54.3123M192.495 54.3123V54.3119M192.495 54.3123V54.3119M192.495 54.3119V54.3114M192.495 54.3119V54.3114M192.495 54.3114V54.3109M192.495 54.3114V54.3109M192.495 54.3109V54.3104M192.495 54.3109V54.3104M192.495 54.3104V54.31M192.495 54.3104V54.31M192.495 54.31V54.3095M192.495 54.31V54.3095M192.495 54.3095V54.309M192.495 54.3095V54.309M192.495 54.309V54.3085M192.495 54.309V54.3085M192.495 54.3085V54.3081M192.495 54.3085V54.3081M192.495 54.3081V54.3076M192.495 54.3081V54.3076M192.495 54.3076V54.3071V54.3076ZM197.499 72.4002L197.515 72.3986L194.667 72.6674L195.647 72.575L195.808 72.5598L197.033 72.4442L197.499 72.4002ZM182.639 70.9872C183.818 72.0369 185.075 72.8966 186.408 73.5622L182.729 74.2441C180.423 74.6715 178.769 77.2396 179.433 79.3626L181.647 86.4432C182.084 87.8416 183.424 88.6063 184.943 88.3247L195.487 86.3705C200.173 85.5019 204.333 83.944 206.891 80.9846C209.492 78.0097 210.32 73.7814 210.32 69.2654V38.5641C210.32 36.6265 208.772 35.3444 206.867 35.7042L192.363 38.4427C192.361 38.443 192.359 38.4433 192.357 38.4436C187.061 39.426 182.492 41.596 179.852 45.7252C177.663 49.1154 176.557 52.7262 176.557 56.4574C176.557 62.4611 178.599 67.3481 182.629 70.9784L182.634 70.9828L182.639 70.9872Z" fill="#699BF7" stroke="black" stroke-width="6"/>
<path d="M163.735 35.183C163.328 33.7342 161.967 32.9284 160.414 33.2163L136.492 37.6501C134.591 38.0024 133.05 39.8549 133.05 41.7879V80.9818C133.05 82.7088 133.161 84.3995 133.383 86.053C133.603 87.7225 134.066 89.2833 134.77 90.7273C135.664 92.5643 138.045 92.7106 139.739 91.2952L148.888 83.6524C150.252 82.5127 150.763 80.7506 150.324 79.3847C150.203 79.0083 150.109 78.6032 150.046 78.1666C149.987 77.5045 149.942 76.8399 149.911 76.1729V76.1723V76.1709V76.1694V76.168V76.1666V76.1652V76.1637V76.1623V76.1609V76.1595V76.158V76.1566V76.1552V76.1538V76.1524V76.1509V76.1495V76.1481V76.1467V76.1452V76.1438V76.1424V76.141V76.1395V76.1381V76.1367V76.1353V76.1338V76.1324V76.131V76.1296V76.1281V76.1267V76.1253V76.1239V76.1224V76.121V76.1196V76.1182V76.1167V76.1153V76.1139V76.1125V76.111V76.1096V76.1082V76.1068V76.1053V76.1039V76.1025V76.1011V76.0997V76.0982V76.0968V76.0954V76.094V76.0925V76.0911V76.0897V76.0883V76.0868V76.0854V76.084V76.0826V76.0811V76.0797V76.0783V76.0769V76.0754V76.074V76.0726V76.0712V76.0697V76.0683V76.0669V76.0655V76.064V76.0626V76.0612V76.0598V76.0583V76.0569V76.0555V76.0541V76.0526V76.0512V76.0498V76.0484V76.0469V76.0455V76.0441V76.0427V76.0413V76.0398V76.0384V76.037V76.0356V76.0341V76.0327V76.0313V76.0299V76.0284V76.027V76.0256V76.0242V76.0227V76.0213V76.0199V76.0185V76.017V76.0156V76.0142V76.0128V76.0113V76.0099V76.0085V76.0071V76.0056V76.0042V76.0028V76.0014V75.9999V75.9985V75.9971V75.9957V75.9942V75.9928V75.9914V75.99V75.9885V75.9871V75.9857V75.9843V75.9828V75.9814V75.98V75.9786V75.9772V75.9757V75.9743V75.9729V75.9715V75.97V75.9686V75.9672V75.9658V75.9643V75.9629V75.9615V75.9601V75.9586V75.9572V75.9558V75.9544V75.9529V75.9515V75.9501V75.9487V75.9472V75.9458V75.9444V75.943V75.9415V75.9401V75.9387V75.9373V75.9358V75.9344V75.933V75.9316V75.9301V75.9287V75.9273V75.9259V75.9244V75.923V75.9216V75.9202V75.9188V75.9173V75.9159V75.9145V75.9131V75.9116V75.9102V75.9088V75.9074V75.9059V75.9045V75.9031V75.9017V75.9002V75.8988V75.8974V75.896V75.8945V75.8931V75.8917V75.8903V75.8888V75.8874V75.886V75.8846V75.8831V75.8817V75.8803V75.8789V75.8774V75.876V75.8746V75.8732V75.8717V75.8703V75.8689V75.8675V75.866V75.8646V75.8632V75.8618V75.8604V75.8589V75.8575V75.8561V75.8547V75.8532V75.8518V75.8504V75.849V75.8475V75.8461V75.8447V75.8433V75.8418V75.8404V75.839V75.8376V75.8361V75.8347V75.8333V75.8319V75.8304V75.829V75.8276V75.8262V75.8247V75.8233V75.8219V75.8205V75.819V75.8176V75.8162V75.8148V75.8133V75.8119V75.8105V75.8091V75.8077V75.8062V75.8048V75.8034V75.802V75.8005V75.7991V75.7977V75.7963V75.7948V75.7934V75.792V75.7906V75.7891V75.7877V75.7863V75.7849V75.7834V75.782V75.7806V75.7792V75.7777V75.7763V75.7749V75.7735V75.772V75.7706V75.7692V75.7678V75.7663V75.7649V75.7635V75.7621V75.7606V75.7592V75.7578V75.7564V75.755V75.7535V75.7521V75.7507V75.7493V75.7478V75.7464V75.745V75.7436V75.7421V75.7407V75.7393V75.7379V75.7364V75.735V75.7336V75.7322V75.7307V75.7293V75.7279V75.7265V75.725V75.7236V75.7222V75.7208V75.7193V75.7179V75.7165V75.7151V75.7136V75.7122V75.7108V75.7094V75.7079V75.7065V75.7051V75.7037V75.7022V75.7008V75.6994V75.698V75.6966V75.6951V75.6937V75.6923V75.6909V75.6894V75.688V75.6866V75.6852V75.6837V75.6823V75.6809V75.6795V75.678V75.6766V75.6752V75.6738V75.6723V75.6709V75.6695V75.6681V75.6666V75.6652V75.6638V75.6624V75.6609V75.6595V75.6581V75.6567V75.6552V75.6538V75.6524V75.651V75.6495V75.6481V75.6467V75.6453V75.6438V75.6424V75.641V75.6396V75.6382V75.6367V75.6353V75.6339V75.6325V75.631V75.6296V75.6282V75.6268V75.6253V75.6239V75.6225V75.6211V75.6196V75.6182V75.6168V75.6154V75.6139V75.6125V75.6111V75.6097V75.6082V75.6068V75.6054V75.604V75.6025V75.6011V75.5997V75.5983V75.5968V75.5954V75.594V75.5926V75.5911V75.5897V75.5883V75.5869V75.5854V75.584V75.5826V75.5812V75.5798V75.5783V75.5769V75.5755V75.5741V75.5726V75.5712V75.5698V75.5684V75.5669V75.5655V75.5641V75.5627V75.5612V75.5598V75.5584V75.557V75.5555V75.5541V75.5527V75.5513V75.5498V75.5484V75.547V75.5456V75.5441V75.5427V75.5413V75.5399V75.5384V75.537V75.5356V75.5342V75.5327V75.5313V75.5299V75.5285V75.527V75.5256V75.5242V75.5228V75.5213V75.5199V75.5185V75.5171V75.5157V75.5142V75.5128V75.5112V75.5096V75.5079V75.5063V75.5047V75.503V75.5014V75.4998V75.4982V75.4965V75.4949V75.4933V75.4916V75.49V75.4884V75.4868V75.4851V75.4835V75.4819V75.4802V75.4786V75.477V75.4754V75.4737V75.4721V75.4705V75.4689V75.4672V75.4656V75.464V75.4623V75.4607V75.4591V75.4575V75.4558V75.4542V75.4526V75.4509V75.4493V75.4477V75.4461V75.4444V75.4428V75.4412V75.4396V75.4379V75.4363V75.4347V75.433V75.4314V75.4298V75.4282V75.4265V75.4249V75.4233V75.4216V75.42V75.4184V75.4168V75.4151V75.4135V75.4119V75.4103V75.4086V75.407V75.4054V75.4037V75.4021V75.4005V75.3989V75.3972V75.3956V75.394V75.3923V75.3907V75.3891V75.3875V75.3858V75.3842V75.3826V75.3809V75.3793V75.3777V75.3761V75.3744V75.3728V75.3712V75.3696V75.3679V75.3663V75.3647V75.363V75.3614V75.3598V75.3582V75.3565V75.3549V75.3533V75.3516V75.35V75.3484V75.3468V75.3451V75.3435V75.3419V75.3403V75.3386V75.337V75.3354V75.3337V75.3321V75.3305V75.3289V75.3272V75.3256V75.324V75.3223V75.3207V75.3191V75.3175V75.3158V75.3142V75.3126V75.3109V75.3093V75.3077V75.3061V75.3044V75.3028V75.3012V75.2996V75.2979V75.2963V75.2947V75.293V75.2914V75.2898V75.2882V75.2865V75.2849V75.2833V75.2816V75.28V75.2784V75.2768V75.2751V75.2735V75.2719V75.2703V75.2686V75.267V75.2654V75.2637V75.2621V75.2605V75.2589V75.2572V75.2556V75.254V75.2523V75.2507V75.2491V75.2475V75.2458V75.2442V75.2426V75.241V75.2393V75.2377V75.2361V75.2344V75.2328V75.2312V75.2296V75.2279V75.2263V75.2247V75.223V75.2214V75.2198V75.2182V75.2165V75.2149V75.2133V75.2116V75.21V75.2084V75.2068V75.2051V75.2035V75.2019V75.2003V75.1986V75.197V75.1954V75.1937V75.1921V75.1905V75.1889V75.1872V75.1856V75.184V75.1823V75.1807V75.1791V75.1775V75.1758V75.1742V75.1726V75.171V75.1693V75.1677V75.1661V75.1644V75.1628V75.1612V75.1596V75.1579V75.1563V75.1547V75.153V75.1514V75.1498V75.1482V75.1465V75.1449V75.1433V75.1416V75.14V75.1384V75.1368V75.1351V75.1335V75.1319V75.1303V75.1286V75.127V75.1254V75.1237V75.1221V75.1205V75.1189V75.1172V75.1156V75.114V75.1123V75.1107V75.1091V75.1075V75.1058V75.1042V75.1026V75.101V75.0993V75.0977V75.0961V75.0944V75.0928V75.0912V75.0896V75.0879V75.0863V75.0847V75.083V75.0814V75.0798V75.0782V75.0765V75.0749V75.0733V75.0717V75.07V75.0684V75.0668V75.0651V75.0635V75.0619V75.0603V75.0586V75.057V75.0554V75.0537V75.0521V75.0505V75.0489V75.0472V75.0456V75.044V75.0423V75.0407V75.0391V75.0375V75.0358V75.0342V75.0326V75.031V75.0293V75.0277V75.0261V75.0244V75.0228V75.0212V75.0196V75.0179V75.0163V75.0147V75.013V75.0114V75.0098V75.0082V75.0065V75.0049V75.0033V75.0017V75V74.9984V74.9968V74.9951V74.9935V74.9919V74.9903V74.9886V74.987V74.9854V74.9837V74.9821V74.9805V74.9789V74.9772V74.9756V74.974V74.9724V74.9707V74.9691V74.9675V74.9658V74.9642V74.9626V74.961V74.9593V74.9577V74.9561V74.9544V74.9528V74.9512V74.9496V74.9479V74.9463V74.9447V74.943V74.9414V74.9398V74.9382V74.9365V74.9349V74.9333V74.9317V74.93V74.9284V74.9268V74.9251V74.9235V74.9219V74.9203V74.9186V74.917V74.9154V74.9137V74.9121V74.9105V74.9089V74.9072V74.9056V74.904V74.9024V74.9007V74.8991V74.8975V74.8958V74.8942V74.8926V74.891V74.8893V74.8877V74.8861V74.8844V74.8828V74.8812V74.8796V74.8779V74.8763V74.8747V74.8731V74.8714V74.8698V74.8682V74.8665V74.8649V74.8633V74.8617V74.86V74.8584V74.8568V74.8551V74.8535V74.8519V74.8503V74.8486V74.847V74.8454V74.8437V74.8421V74.8405V74.8389V74.8372V74.8356V74.834V74.8324V74.8307V74.8291V74.8275V74.8258V74.8242V74.8226V74.821V74.8193V74.8177V74.8161V74.8144V74.8128V74.8112V74.8096V74.8079V74.8063V74.8047V74.8031V74.8014V74.7998V74.7982V74.7965V74.7949V74.7933V74.7917V74.79V74.7884V74.7868V74.7851V74.7835V74.7819V74.7803V74.7786V74.777V74.7754V74.7738V74.7721V74.7705V74.7689V74.7672V74.7656V74.764V74.7624V74.7607V74.7591V74.7575V74.7558V74.7542V74.7526V74.751V74.7493V74.7477V74.7461V74.7445V74.7428V74.7412V74.7396V74.7379V74.7363V74.7347V74.7331V74.7314V74.7298V74.7282V74.7265V74.7249V74.7233V74.7217V74.72V74.7184V74.7168V74.7151V74.7135V74.7119V74.7103V74.7086V74.707V74.7054V74.7038V74.7021V74.7005V74.6989V74.6972V74.6956V74.694V74.6924V74.6907V74.6891V74.6875V74.6858V74.6842V74.6826V74.681V74.6793V67.1568L158.827 65.5043C160.38 65.2165 161.74 63.9064 162.148 62.3067L164.441 53.2966C165.036 50.9607 163.388 49.074 161.12 49.4943L149.911 51.5719V50.7479L162.708 48.376C164.976 47.9557 166.624 45.4583 166.029 43.3427L163.735 35.183Z" fill="#FFC700" stroke="black" stroke-width="6"/>
<path d="M178.676 44.4272C178.676 43.768 178.497 43.1846 178.185 42.7159C178.497 42.1317 178.676 41.4819 178.676 40.8226V33.3317C178.676 31.3987 177.135 30.1173 175.235 30.4695L166.384 32.1099C164.483 32.4622 162.942 34.3148 162.942 36.2478V43.7387C162.942 44.3979 163.122 44.9814 163.433 45.4501C163.122 46.0342 162.942 46.6841 162.942 47.3433V77.8067C162.942 79.7397 164.483 81.0212 166.384 80.6689L175.235 79.0285C177.135 78.6762 178.676 76.8237 178.676 74.8907V44.4272Z" fill="#0FA958" stroke="black" stroke-width="6"/>
</g>
<path d="M2 40H98M2 50H98M2 60H98" stroke="black" stroke-width="4" stroke-linecap="round"/>
<path d="M356 40H452M356 50H452M356 60H452" stroke="black" stroke-width="4" stroke-linecap="round"/>
<defs>
<filter id="filter0_d_22_154" x="130.1" y="0.98291" width="193.85" height="97.3109" filterUnits="userSpaceOnUse" color-interpolation-filters="sRGB">
<feFlood flood-opacity="0" result="BackgroundImageFix"/>
<feColorMatrix in="SourceAlpha" type="matrix" values="0 0 0 0 0 0 0 0 0 0 0 0 0 0 0 0 0 0 127 0" result="hardAlpha"/>
<feOffset dy="3"/>
<feColorMatrix type="matrix" values="0 0 0 0 0 0 0 0 0 0 0 0 0 0 0 0 0 0 1 0"/>
<feBlend mode="normal" in2="BackgroundImageFix" result="effect1_dropShadow_22_154"/>
<feBlend mode="normal" in="SourceGraphic" in2="effect1_dropShadow_22_154" result="shape"/>
</filter>
</defs>
</svg>
